<?xml version="1.0" encoding="UTF-8"?>
<svg width="50px" height="50px" viewBox="0 0 50 50" version="1.1" xmlns="http://www.w3.org/2000/svg" xmlns:xlink="http://www.w3.org/1999/xlink">
    <!-- Generator: Sketch 49 (51002) - http://www.bohemiancoding.com/sketch -->
    <title>003-support</title>
    <desc>Created with Sketch.</desc>
    <defs></defs>
    <g id="Page-1" stroke="none" stroke-width="1" fill="none" fill-rule="evenodd">
        <g id="Desktop-HD" transform="translate(-1014.000000, -832.000000)" fill="#E91E63" fill-rule="nonzero">
            <g id="Services" transform="translate(250.000000, 80.000000)">
                <g id="Group-9" transform="translate(0.000000, 213.000000)">
                    <g id="Group-17" transform="translate(640.000000, 470.000000)">
                        <g id="Group-5" transform="translate(25.000000, 69.000000)">
                            <g id="003-support" transform="translate(99.000000, 0.000000)">
                                <path d="M1.6856492,26.2953303 C2.59681093,26.2953303 3.37129841,25.5664009 3.37129841,24.6096811 C3.37129841,18.7326879 5.74031891,13.4479499 9.61275626,9.57551253 C13.4396355,5.74863326 18.7699317,3.33405467 24.6469248,3.33405467 C28.9749431,3.33405467 33.0751708,4.65523918 36.4920273,6.93314351 C38.7699317,8.48211845 40.7289294,10.4411162 42.2779043,12.7645786 L40.3644647,12.0356492 C39.498861,11.7167426 38.5421412,12.1267654 38.2232346,12.992369 C37.904328,13.8579727 38.3143508,14.8146925 39.1799544,15.1335991 L45.1936219,17.5026196 C45.6036446,17.6848519 46.0592255,17.6848519 46.4692483,17.5026196 C46.9248292,17.3203872 47.2437358,16.9559226 47.4259681,16.5003417 L49.7949886,10.4866743 C50.1138952,9.62107062 49.7038724,8.6643508 48.8382688,8.34544419 C47.9726651,8.02653759 47.0159453,8.43656036 46.6970387,9.30216401 L45.6947608,11.8989749 C43.8268793,8.80102506 41.3211845,6.20421412 38.3599089,4.2452164 C34.3963554,1.55728929 29.6583144,0.0538724374 24.6469248,0.0538724374 C17.8587699,0.0538724374 11.7084282,2.78735763 7.28929385,7.25205011 C2.77904328,11.6711845 -5.68434189e-14,17.8215262 -5.68434189e-14,24.6096811 C-5.03692254e-14,25.5208428 0.774487472,26.2953303 1.6856492,26.2953303 Z" id="Shape"></path>
                                <path d="M48.1548975,22.9240319 C47.2437358,22.9240319 46.4692483,23.6529613 46.4692483,24.6096811 C46.4692483,30.4866743 44.1002278,35.7714123 40.2277904,39.6438497 C36.4009112,43.4707289 31.070615,45.8853075 25.1936219,45.8853075 C20.8656036,45.8853075 16.7653759,44.564123 13.3485194,42.2862187 C11.070615,40.7372437 9.11161731,38.778246 7.56264237,36.4547836 L9.476082,37.2292711 C10.3416856,37.5481777 11.2984055,37.1381549 11.6173121,36.2725513 C11.9362187,35.4069476 11.5261959,34.4502278 10.6605923,34.1313212 L4.64692483,31.7623007 C4.23690205,31.5800683 3.78132118,31.5800683 3.37129841,31.7623007 C2.91571754,31.944533 2.59681093,32.3089977 2.41457859,32.7645786 L0.13667426,38.7326879 C-0.182232346,39.5982916 0.227790433,40.5550114 1.09339408,40.873918 C1.95899772,41.1928246 2.91571754,40.7828018 3.23462415,39.9171982 L4.23690205,37.3203872 C6.1047836,40.4183371 8.61047836,43.0151481 11.571754,44.9741458 C15.5353075,47.6620729 20.2733485,49.1654897 25.284738,49.1654897 C32.0728929,49.1654897 38.2232346,46.4320046 42.642369,41.9673121 C47.1070615,37.5026196 49.8405467,31.397836 49.8405467,24.6096811 C49.8405467,23.6985194 49.0660592,22.9240319 48.1548975,22.9240319 Z" id="Shape"></path>
                                <path d="M14.3507973,35.2702733 L35.5353075,35.2702733 C35.5353075,30.896697 31.9817768,27.3431663 27.6082005,27.3431663 L22.2323462,27.3431663 C17.904328,27.3431663 14.3507973,30.896697 14.3507973,35.2702733 Z" id="Shape"></path>
                                <circle id="Oval" cx="24.9202733" cy="19.4616173" r="5.51252847"></circle>
                            </g>
                        </g>
                    </g>
                </g>
            </g>
        </g>
    </g>
</svg>