<?xml version="1.0" encoding="UTF-8"?>
<svg width="50px" height="47px" viewBox="0 0 50 47" version="1.1" xmlns="http://www.w3.org/2000/svg" xmlns:xlink="http://www.w3.org/1999/xlink">
    <!-- Generator: Sketch 49 (51002) - http://www.bohemiancoding.com/sketch -->
    <title>005-link</title>
    <desc>Created with Sketch.</desc>
    <defs></defs>
    <g id="Page-1" stroke="none" stroke-width="1" fill="none" fill-rule="evenodd">
        <g id="Desktop-HD" transform="translate(-695.000000, -832.000000)" fill="#2196F3" fill-rule="nonzero">
            <g id="Services" transform="translate(250.000000, 80.000000)">
                <g id="Group-9" transform="translate(0.000000, 213.000000)">
                    <g id="Group-18" transform="translate(320.000000, 470.000000)">
                        <g id="Group-4" transform="translate(25.000000, 69.000000)">
                            <g id="005-link" transform="translate(100.000000, 0.000000)">
                                <path d="M26.4182195,20.010352 C25.8695652,20.5590062 25.8695652,21.4389234 26.4182195,21.9875776 C28.6853002,24.2546584 28.6853002,27.9399586 26.4182195,30.2070393 L14.5134576,42.1118012 C12.2463768,44.378882 8.5610766,44.378882 6.29399586,42.1118012 L4.50310559,40.320911 C2.23602484,38.0538302 2.23602484,34.36853 4.50310559,32.1014493 L16.4078675,20.1966874 C16.9565217,19.6480331 16.9565217,18.7681159 16.4078675,18.2194617 C15.8592133,17.6708075 14.9792961,17.6708075 14.4306418,18.2194617 L2.52587992,30.1242236 C0.900621118,31.7494824 0,33.9130435 0,36.2111801 C0,38.5093168 0.890269151,40.6728778 2.52587992,42.2981366 L4.31677019,44.0890269 C5.99378882,45.7660455 8.19875776,46.6045549 10.4037267,46.6045549 C12.6086957,46.6045549 14.8136646,45.7660455 16.4906832,44.0890269 L28.3954451,32.184265 C31.7494824,28.8302277 31.7494824,23.3643892 28.3954451,20.010352 C27.8571429,19.4616977 26.9668737,19.4616977 26.4182195,20.010352 Z" id="Shape"></path>
                                <path d="M47.4637681,4.36853002 L45.6728778,2.57763975 C42.3188406,-0.776397516 36.8530021,-0.776397516 33.4989648,2.57763975 L21.5942029,14.4824017 C18.2401656,17.8364389 18.2401656,23.3022774 21.5942029,26.6563147 C22.1428571,27.2049689 23.0227743,27.2049689 23.5714286,26.6563147 C24.1200828,26.1076605 24.1200828,25.2277433 23.5714286,24.679089 C21.3043478,22.4120083 21.3043478,18.7267081 23.5714286,16.4596273 L35.4761905,4.55486542 C37.7432712,2.28778468 41.4285714,2.28778468 43.6956522,4.55486542 L45.4865424,6.34575569 C47.7536232,8.61283644 47.7536232,12.2981366 45.4865424,14.5652174 L33.5817805,26.4699793 C33.0331263,27.0186335 33.0331263,27.8985507 33.5817805,28.447205 C33.8509317,28.7163561 34.2132505,28.8612836 34.5652174,28.8612836 C34.9171843,28.8612836 35.2795031,28.7267081 35.5486542,28.447205 L47.4534161,16.5424431 C49.0786749,14.9171843 49.9792961,12.7536232 49.9792961,10.4554865 C49.9792961,8.1573499 49.0890269,5.99378882 47.4637681,4.36853002 Z" id="Shape"></path>
                            </g>
                        </g>
                    </g>
                </g>
            </g>
        </g>
    </g>
</svg>