<?xml version="1.0" encoding="UTF-8"?>
<svg width="50px" height="50px" viewBox="0 0 50 50" version="1.1" xmlns="http://www.w3.org/2000/svg" xmlns:xlink="http://www.w3.org/1999/xlink">
    <!-- Generator: Sketch 49 (51002) - http://www.bohemiancoding.com/sketch -->
    <title>004-database</title>
    <desc>Created with Sketch.</desc>
    <defs></defs>
    <g id="Page-1" stroke="none" stroke-width="1" fill="none" fill-rule="evenodd">
        <g id="Desktop-HD" transform="translate(-688.000000, -360.000000)" fill="#F44336" fill-rule="nonzero">
            <g id="Services" transform="translate(250.000000, 80.000000)">
                <g id="Group-9" transform="translate(0.000000, 213.000000)">
                    <g id="Group-15" transform="translate(320.000000, 0.000000)">
                        <g id="Group-7" transform="translate(25.000000, 67.000000)">
                            <g id="004-database" transform="translate(93.000000, 0.000000)">
                                <path d="M45.9160714,39.5857143 C45.5330357,35.91875 42.4767857,33.0392857 38.8151786,33.0392857 C36.5258929,33.0392857 34.3651786,34.1875 33.0294643,36.0767857 C32.7696429,36.03125 32.50625,36.0089286 32.2410714,36.0089286 C30.1696429,36.0089286 28.3294643,37.4169643 27.7178571,39.4133929 C26.0151786,40.4232143 24.9357143,42.3071429 24.9357143,44.3258929 C24.9357143,47.4571429 27.4223214,50.0035714 30.4785714,50.0035714 L40.0982143,50.0035714 C40.1517857,50.0035714 40.2035714,50 40.2508929,49.9964286 C40.30625,50 40.3616071,50.0035714 40.41875,50.0035714 L44.2669643,50.0035714 C47.1464286,50.0035714 49.4892857,47.6044643 49.4892857,44.65625 C49.4883929,42.3348214 48.0223214,40.3053571 45.9160714,39.5857143 Z M44.2660714,48.2178571 L40.3803571,48.2151786 L40.2285714,48.2098214 L30.4767857,48.2178571 C28.4053571,48.2178571 26.7196429,46.4714286 26.7196429,44.3258929 C26.7196429,42.8392857 27.5669643,41.4598214 28.8776786,40.8125 L29.2660714,40.6214286 L29.3571429,40.1973214 C29.6526786,38.8044643 30.8651786,37.7946429 32.2401786,37.7946429 C32.5482143,37.7946429 32.8544643,37.8455357 33.1508929,37.9446429 L33.8446429,38.1776786 L34.2089286,37.5428571 C35.1875,35.8410714 36.9089286,34.825 38.8142857,34.825 C41.7294643,34.825 44.13125,37.2776786 44.1696429,40.2919643 L44.1794643,41.0178571 L44.8928571,41.15625 C46.5205357,41.4723214 47.7017857,42.94375 47.7017857,44.6553571 C47.7026786,46.6196429 46.1607143,48.2178571 44.2660714,48.2178571 Z" id="Shape"></path>
                                <path d="M22.8366071,36.6071429 C22.0982143,36.6071429 21.375,36.5928571 20.6651786,36.5678571 C20.23125,36.5517857 19.8125,36.5241071 19.3892857,36.4991071 C19.1276786,36.4839286 18.8580357,36.4741071 18.6008929,36.4553571 C18.0383929,36.4151786 17.4919643,36.3625 16.9517857,36.30625 C16.85,36.2955357 16.74375,36.2883929 16.6428571,36.2776786 C16.0241071,36.2098214 15.4214286,36.1321429 14.8339286,36.0464286 C14.81875,36.0446429 14.8035714,36.0428571 14.7883929,36.0401786 C11.7660714,35.59375 9.17232143,34.9125 7.14464286,34.1035714 C7.13392857,34.1 7.12321429,34.0955357 7.1125,34.0910714 C6.73839286,33.9410714 6.3875,33.7857143 6.05357143,33.6276786 C6.01517857,33.6089286 5.97410714,33.5910714 5.93571429,33.5723214 C5.63571429,33.4276786 5.35803571,33.2794643 5.09196429,33.1285714 C5.02946429,33.0928571 4.96339286,33.0580357 4.90267857,33.0214286 C4.67142857,32.8857143 4.46071429,32.7473214 4.25892857,32.6080357 C4.18214286,32.5544643 4.10267857,32.5008929 4.02946429,32.4473214 C3.85892857,32.3214286 3.70625,32.1946429 3.55982143,32.0669643 C3.48035714,31.9964286 3.4,31.9267857 3.32767857,31.85625 C3.20803571,31.7401786 3.10267857,31.6232143 3.00357143,31.50625 C2.93392857,31.4241071 2.86696429,31.3410714 2.80803571,31.2589286 C2.72946429,31.1491071 2.6625,31.0392857 2.60178571,30.9294643 C2.55357143,30.8410714 2.51071429,30.7526786 2.47410714,30.6642857 C2.43035714,30.55625 2.39553571,30.4482143 2.37053571,30.3410714 C2.33660714,30.1964286 2.3,30.0508929 2.3,29.9080357 L2.3,22.5803571 C2.325,22.6035714 2.35625,22.6258929 2.38214286,22.6491071 C2.57678571,22.8196429 2.775,22.9901786 2.99821429,23.1544643 C6.3625,25.7017857 13.0883929,27.6785714 22.8366071,27.6785714 C32.54375,27.6785714 39.2526786,25.7178571 42.6303571,23.1892857 C42.9,22.9928571 43.1428571,22.7901786 43.3714286,22.5839286 L43.3723214,22.5839286 L43.3723214,30.3571429 C43.3723214,30.8508929 43.7714286,31.25 44.2651786,31.25 C44.7589286,31.25 45.1580357,30.8508929 45.1580357,30.3571429 L45.1580357,19.6428571 L45.1580357,19.1964286 L45.1580357,8.48214286 L45.1580357,8.03571429 C45.1580357,7.87321429 45.1026786,7.72946429 45.0276786,7.59821429 C43.99375,3.76785714 36.2982143,0 22.8366071,0 C9.375,0 1.67946429,3.76785714 0.646428571,7.59821429 C0.570535714,7.72946429 0.515178571,7.87321429 0.515178571,8.03571429 L0.515178571,8.48214286 L0.515178571,19.1964286 L0.515178571,19.6428571 L0.515178571,29.9107143 L0.515178571,30.3571429 L0.515178571,41.0714286 C0.515178571,41.2151786 0.552678571,41.3508929 0.617857143,41.4714286 C1.63482143,45.7866071 10.1633929,48.3285714 18.3053571,48.9392857 C18.3276786,48.9410714 18.3508929,48.9419643 18.3732143,48.9419643 C18.8366071,48.9419643 19.2276786,48.5857143 19.2625,48.1160714 C19.2991071,47.6241071 18.93125,47.1955357 18.4392857,47.1589286 C8.51607143,46.4142857 2.73392857,43.3928571 2.32946429,40.9267857 C2.32232143,40.8866071 2.3125,40.8482143 2.30089286,40.8098214 L2.30089286,33.2973214 C2.32589286,33.3205357 2.35714286,33.3428571 2.38303571,33.3660714 C2.57767857,33.5366071 2.77589286,33.7071429 2.99910714,33.8714286 C6.3625,36.4160714 13.0883929,38.3928571 22.8366071,38.3928571 C23.3303571,38.3928571 23.7294643,37.99375 23.7294643,37.5 C23.7294643,37.00625 23.3303571,36.6071429 22.8366071,36.6071429 Z M2.83839286,12.31875 C3.10625,12.5294643 3.39553571,12.7375 3.70892857,12.9401786 C3.77410714,12.9821429 3.84732143,13.0232143 3.91517857,13.0651786 C4.17767857,13.2285714 4.45535714,13.3883929 4.74732143,13.5455357 C4.85535714,13.6035714 4.96339286,13.6607143 5.075,13.7178571 C5.40089286,13.8839286 5.74285714,14.0446429 6.10267857,14.2017857 C6.16160714,14.2276786 6.21517857,14.2544643 6.275,14.2794643 C6.69375,14.4571429 7.13839286,14.6267857 7.60089286,14.7901786 C7.72857143,14.8357143 7.8625,14.8785714 7.99375,14.9232143 C8.36160714,15.0473214 8.74196429,15.1660714 9.13571429,15.28125 C9.27767857,15.3223214 9.41696429,15.3651786 9.5625,15.4053571 C10.0848214,15.55 10.6241071,15.6875 11.1901786,15.8142857 C11.2678571,15.8321429 11.3517857,15.8473214 11.4303571,15.8642857 C11.9294643,15.9732143 12.4473214,16.0741071 12.9794643,16.1678571 C13.1598214,16.2 13.3428571,16.2303571 13.5267857,16.2607143 C14.0330357,16.34375 14.5544643,16.4205357 15.0892857,16.4901786 C15.2267857,16.5080357 15.3580357,16.5276786 15.4973214,16.5455357 C16.1616071,16.6258929 16.8491071,16.6946429 17.5553571,16.7535714 C17.7294643,16.7678571 17.9107143,16.7785714 18.0875,16.7910714 C18.6526786,16.8321429 19.2303571,16.8660714 19.8214286,16.8928571 C20.0366071,16.9026786 20.2508929,16.9125 20.4705357,16.9196429 C21.2410714,16.9464286 22.025,16.9642857 22.8366071,16.9642857 C23.6482143,16.9642857 24.4330357,16.9455357 25.2026786,16.9196429 C25.4214286,16.9125 25.6357143,16.9017857 25.8517857,16.8928571 C26.4428571,16.8660714 27.0205357,16.8321429 27.5857143,16.7910714 C27.7625,16.7776786 27.9428571,16.7678571 28.1178571,16.7535714 C28.8241071,16.6955357 29.5116071,16.6258929 30.1758929,16.5455357 C30.3151786,16.5285714 30.4464286,16.5080357 30.5839286,16.4901786 C31.11875,16.4205357 31.6392857,16.34375 32.1464286,16.2607143 C32.3303571,16.2303571 32.5133929,16.2 32.69375,16.1678571 C33.2258929,16.0741071 33.74375,15.9732143 34.2428571,15.8642857 C34.3214286,15.8473214 34.4053571,15.8321429 34.4830357,15.8142857 C35.0491071,15.6875 35.5883929,15.55 36.1107143,15.4053571 C36.25625,15.3651786 36.3955357,15.3232143 36.5375,15.28125 C36.93125,15.1669643 37.3116071,15.0473214 37.6794643,14.9232143 C37.8107143,14.8785714 37.9446429,14.8357143 38.0723214,14.7901786 C38.5348214,14.6258929 38.9803571,14.45625 39.3982143,14.2794643 C39.4580357,14.2544643 39.5116071,14.2267857 39.5705357,14.2017857 C39.9303571,14.0446429 40.2723214,13.8839286 40.5982143,13.7178571 C40.7098214,13.6607143 40.81875,13.6035714 40.9258929,13.5455357 C41.2178571,13.3892857 41.4955357,13.2294643 41.7580357,13.0651786 C41.8258929,13.0232143 41.8991071,12.9821429 41.9642857,12.9401786 C42.2776786,12.7375 42.5669643,12.5303571 42.8348214,12.31875 C42.9017857,12.2651786 42.9616071,12.2116071 43.0267857,12.1580357 C43.1428571,12.0616071 43.2651786,11.9660714 43.3723214,11.86875 L43.3723214,19.1964286 C43.3723214,19.3401786 43.3357143,19.4848214 43.3017857,19.6294643 C43.2767857,19.7375 43.2419643,19.8446429 43.1982143,19.9526786 C43.1625,20.0410714 43.11875,20.1294643 43.0705357,20.2178571 C43.0107143,20.3276786 42.94375,20.4375 42.8642857,20.5473214 C42.8053571,20.6294643 42.7383929,20.7125 42.66875,20.7946429 C42.5696429,20.9116071 42.4642857,21.0285714 42.3446429,21.1446429 C42.2723214,21.2151786 42.1928571,21.2848214 42.1125,21.3553571 C41.9660714,21.4830357 41.8133929,21.6098214 41.6428571,21.7357143 C41.5696429,21.7901786 41.4910714,21.8428571 41.4133929,21.8964286 C41.2116071,22.0357143 41.0008929,22.1741071 40.7696429,22.3098214 C40.7089286,22.3464286 40.64375,22.38125 40.5803571,22.4169643 C40.3142857,22.5669643 40.0366071,22.7151786 39.7366071,22.8607143 C39.6982143,22.8794643 39.6580357,22.8973214 39.61875,22.9160714 C39.2839286,23.0741071 38.9339286,23.2294643 38.5598214,23.3794643 C38.5491071,23.3839286 38.5383929,23.3875 38.5276786,23.3919643 C36.5,24.2017857 33.90625,24.8830357 30.8839286,25.3285714 C30.86875,25.3303571 30.8535714,25.3321429 30.8383929,25.3348214 C30.2508929,25.4214286 29.6482143,25.4991071 29.0294643,25.5660714 C28.9285714,25.5767857 28.8223214,25.5839286 28.7205357,25.5946429 C28.1803571,25.6508929 27.6339286,25.7026786 27.0714286,25.74375 C26.8142857,25.7625 26.5446429,25.7723214 26.2830357,25.7875 C25.8598214,25.8125 25.4410714,25.8401786 25.0071429,25.85625 C24.2982143,25.8785714 23.575,25.8928571 22.8366071,25.8928571 C22.0982143,25.8928571 21.375,25.8785714 20.6651786,25.8535714 C20.23125,25.8375 19.8125,25.8098214 19.3892857,25.7848214 C19.1276786,25.7696429 18.8580357,25.7598214 18.6008929,25.7410714 C18.0383929,25.7008929 17.4919643,25.6482143 16.9517857,25.5919643 C16.85,25.58125 16.74375,25.5741071 16.6428571,25.5633929 C16.0241071,25.4955357 15.4214286,25.4178571 14.8339286,25.3321429 C14.81875,25.3303571 14.8035714,25.3285714 14.7883929,25.3258929 C11.7660714,24.8794643 9.17232143,24.1982143 7.14464286,23.3892857 C7.13392857,23.3857143 7.12321429,23.38125 7.1125,23.3767857 C6.73839286,23.2267857 6.3875,23.0714286 6.05357143,22.9133929 C6.01517857,22.8946429 5.97410714,22.8767857 5.93571429,22.8580357 C5.63571429,22.7133929 5.35803571,22.5651786 5.09196429,22.4142857 C5.02946429,22.3785714 4.96339286,22.34375 4.90267857,22.3071429 C4.67142857,22.1714286 4.46071429,22.0330357 4.25892857,21.89375 C4.18214286,21.8401786 4.10267857,21.7866071 4.02946429,21.7330357 C3.85892857,21.6071429 3.70625,21.4803571 3.55982143,21.3526786 C3.48035714,21.2821429 3.4,21.2125 3.32767857,21.1419643 C3.20803571,21.0258929 3.10267857,20.9089286 3.00357143,20.7919643 C2.93392857,20.7098214 2.86696429,20.6267857 2.80803571,20.5446429 C2.72946429,20.4348214 2.6625,20.325 2.60178571,20.2151786 C2.55357143,20.1267857 2.51071429,20.0383929 2.47410714,19.95 C2.43035714,19.8419643 2.39553571,19.7339286 2.37053571,19.6267857 C2.33660714,19.4821429 2.3,19.3366071 2.3,19.19375 L2.3,11.8660714 C2.40714286,11.9633929 2.52946429,12.0589286 2.64553571,12.1553571 C2.71071429,12.2116071 2.77053571,12.2651786 2.83839286,12.31875 Z M22.8366071,1.78571429 C34.9392857,1.78571429 43.3723214,5.31428571 43.3723214,8.48214286 C43.3723214,11.65 34.9392857,15.1785714 22.8366071,15.1785714 C10.7339286,15.1785714 2.30089286,11.65 2.30089286,8.48214286 C2.30089286,5.31428571 10.7339286,1.78571429 22.8366071,1.78571429 Z" id="Shape"></path>
                            </g>
                        </g>
                    </g>
                </g>
            </g>
        </g>
    </g>
</svg>