<?xml version="1.0" encoding="UTF-8"?>
<svg width="50px" height="50px" viewBox="0 0 50 50" version="1.1" xmlns="http://www.w3.org/2000/svg" xmlns:xlink="http://www.w3.org/1999/xlink">
    <!-- Generator: Sketch 49 (51002) - http://www.bohemiancoding.com/sketch -->
    <title>001-coding</title>
    <desc>Created with Sketch.</desc>
    <defs></defs>
    <g id="Page-1" stroke="none" stroke-width="1" fill="none" fill-rule="evenodd">
        <g id="Desktop-HD" transform="translate(-375.000000, -361.000000)" fill="#4CAF50" fill-rule="nonzero">
            <g id="Services" transform="translate(250.000000, 80.000000)">
                <g id="Group-9" transform="translate(0.000000, 213.000000)">
                    <g id="Group-14">
                        <g id="Group-8" transform="translate(0.000000, 68.000000)">
                            <g id="001-coding" transform="translate(125.000000, 0.000000)">
                                <circle id="Oval" cx="5.19814815" cy="5.19814815" r="1.03966862"></circle>
                                <circle id="Oval" cx="9.35672515" cy="5.19814815" r="1.03966862"></circle>
                                <circle id="Oval" cx="13.5153021" cy="5.19814815" r="1.03966862"></circle>
                                <path d="M18.3398635,29.351462 L13.0604288,24.9512671 L18.3398635,20.5510721 C18.7805068,20.1835283 18.8403509,19.5276803 18.4729045,19.087037 C18.104386,18.6484405 17.4515595,18.5854776 17.0078947,18.9550682 L10.770078,24.1532164 C10.5335283,24.3501949 10.3964912,24.6425926 10.3964912,24.9512671 C10.3964912,25.2599415 10.5335283,25.5523392 10.770078,25.7493177 L17.0078947,30.9474659 C17.2028265,31.1099415 17.4384016,31.1890838 17.6729045,31.1890838 C17.9714425,31.1890838 18.2668616,31.0611111 18.4729045,30.8154971 C18.8403509,30.3748538 18.7805068,29.7190058 18.3398635,29.351462 Z" id="Shape"></path>
                                <path d="M27.2711501,30.8154971 C27.4772904,31.0612086 27.7727096,31.1890838 28.0711501,31.1890838 C28.305653,31.1890838 28.5412281,31.1098441 28.7361598,30.9474659 L34.9739766,25.7493177 C35.2105263,25.5523392 35.3475634,25.2599415 35.3475634,24.9512671 C35.3475634,24.6425926 35.2105263,24.3501949 34.9739766,24.1532164 L28.7361598,18.9550682 C28.2945419,18.5854776 27.6406433,18.6484405 27.2711501,19.087037 C26.9036062,19.5276803 26.9635478,20.1835283 27.404191,20.5510721 L32.6835283,24.9512671 L27.4040936,29.351462 C26.9635478,29.7190058 26.9036062,30.3748538 27.2711501,30.8154971 Z" id="Shape"></path>
                                <path d="M26.4000975,16.7174464 C25.8752437,16.4940546 25.2609162,16.73577 25.035575,17.2636452 L18.7977583,31.8185185 C18.571345,32.3464912 18.8160819,32.9576998 19.3439571,33.1850877 C19.4769981,33.2419103 19.6160819,33.2683236 19.7531189,33.2683236 C20.1561404,33.2683236 20.539961,33.0327485 20.7084795,32.6388889 L26.9462963,18.0840156 C27.1727096,17.5560429 26.9279727,16.9448343 26.4000975,16.7174464 Z" id="Shape"></path>
                                <path d="M49.115692,35.3780702 L47.1236842,34.8806043 L48.1795322,33.1221248 C48.4252437,32.7119883 48.3602339,32.1881092 48.0231969,31.8509747 L45.7439571,29.5717349 L45.7439571,4.158577 C45.7439571,1.86608187 43.8789474,0 41.5854776,0 L4.158577,0 C1.86500975,0 0,1.86608187 0,4.158577 L0,41.5854776 C0,43.8779727 1.86500975,45.7440546 4.158577,45.7440546 L29.5718324,45.7440546 L31.8500975,48.0223197 C32.1861598,48.3593567 32.7090643,48.4223197 33.1201754,48.178655 L34.8807018,47.122807 L35.3792398,49.1148148 C35.4950292,49.5777778 35.9102339,49.9026316 36.3874269,49.9026316 L40.545809,49.9026316 C41.0230019,49.9026316 41.4382066,49.5777778 41.5539961,49.1148148 L42.0525341,47.122807 L43.8130604,48.178655 C44.2222222,48.4243665 44.7461014,48.3593567 45.0831384,48.0223197 L48.0233918,45.0820663 C48.3604288,44.7450292 48.4254386,44.2211501 48.1797271,43.8109162 L47.1238791,42.0524366 L49.1158869,41.5549708 C49.5778752,41.4391813 49.902729,41.0230019 49.902729,40.545809 L49.902729,36.387232 C49.9025341,35.9101365 49.5776803,35.4938596 49.115692,35.3780702 Z M2.07923977,4.158577 C2.07923977,3.01130604 3.0122807,2.07933723 4.15847953,2.07933723 L41.5853801,2.07933723 C42.7315789,2.07933723 43.6646199,3.01140351 43.6646199,4.158577 L43.6646199,8.317154 L2.07923977,8.317154 L2.07923977,4.158577 Z M28.8412281,43.6647173 L4.158577,43.6647173 C3.01237817,43.6647173 2.07933723,42.7326511 2.07933723,41.5854776 L2.07933723,10.3963938 L43.6647173,10.3963938 L43.6647173,28.8434698 L42.0524366,29.8104288 L41.5538986,27.8184211 C41.4381092,27.3554581 41.0229045,27.0306043 40.5457115,27.0306043 L36.3871345,27.0306043 C35.9099415,27.0306043 35.4947368,27.3554581 35.3789474,27.8184211 L34.8804094,29.8104288 L33.119883,28.7545809 C32.7097466,28.5088694 32.1858674,28.5718324 31.8498051,28.9109162 L28.9095517,31.8511696 C28.5725146,32.1882066 28.5075049,32.7120858 28.7532164,33.1223197 L29.8090643,34.8807992 L27.8170565,35.3782651 C27.3550682,35.4940546 27.0302144,35.9102339 27.0302144,36.3874269 L27.0302144,40.545809 C27.0302144,41.0230019 27.3550682,41.4392788 27.8170565,41.5549708 L29.8090643,42.0524366 L28.8412281,43.6647173 Z M47.8232943,39.7336257 L46.0374269,40.1803119 C45.6983431,40.2655945 45.4241715,40.5153996 45.3084795,40.8462963 C45.2160819,41.1122807 45.1145224,41.3722222 44.9917154,41.6239766 C44.8384016,41.9407407 44.8546784,42.3123782 45.0353801,42.6149123 L45.9785575,44.1865497 L44.1866472,45.9774854 L42.6140351,45.0352827 C42.3124756,44.8525341 41.9388889,44.8362573 41.6241715,44.9906433 C41.371345,45.1145224 41.1104288,45.2160819 40.8434698,45.3094542 C40.5145224,45.4252437 40.2657895,45.6993177 40.1814815,46.0384016 L39.7347953,47.8232943 L37.1986355,47.8232943 L36.7519493,46.0384016 C36.6676413,45.6993177 36.4189084,45.4251462 36.089961,45.3094542 C35.8229045,45.2160819 35.5619883,45.1145224 35.3092593,44.9906433 C34.9934698,44.8383041 34.6208577,44.8525341 34.3193957,45.0352827 L32.7467836,45.9774854 L30.9548733,44.1865497 L31.8980507,42.6149123 C32.0787524,42.3123782 32.0950292,41.9407407 31.9417154,41.6239766 C31.8189084,41.3722222 31.7173489,41.1122807 31.6249513,40.8462963 C31.5091618,40.5153021 31.2350877,40.2655945 30.8960039,40.1803119 L29.1101365,39.7336257 L29.1101365,37.1995127 L30.8960039,36.7528265 C31.2350877,36.6675439 31.5092593,36.4177388 31.6249513,36.0868421 C31.7173489,35.8208577 31.8189084,35.5609162 31.9417154,35.3091618 C32.0950292,34.9923977 32.0787524,34.6207602 31.8980507,34.3182261 L30.9548733,32.7465887 L32.7467836,30.955653 L34.3193957,31.8978558 C34.6209552,32.0785575 34.9915205,32.0927875 35.3092593,31.9424951 C35.5620858,31.818616 35.8230019,31.7170565 36.089961,31.6236842 C36.4189084,31.5078947 36.6676413,31.2338207 36.7519493,30.8947368 L37.1986355,29.1098441 L39.7347953,29.1098441 L40.1814815,30.8947368 C40.2657895,31.2338207 40.5145224,31.5079922 40.8434698,31.6236842 C41.1105263,31.7170565 41.3714425,31.818616 41.6241715,31.9424951 C41.939961,32.0927875 42.3125731,32.0806043 42.6140351,31.8978558 L44.1866472,30.955653 L45.9785575,32.7465887 L45.0353801,34.3182261 C44.8546784,34.6207602 44.8384016,34.9923977 44.9917154,35.3091618 C45.1145224,35.5609162 45.2160819,35.8208577 45.3084795,36.0868421 C45.424269,36.4178363 45.6983431,36.6675439 46.0374269,36.7528265 L47.8232943,37.1995127 L47.8232943,39.7336257 Z" id="Shape"></path>
                                <path d="M38.4665692,33.2683236 C35.6004873,33.2683236 33.2684211,35.5994152 33.2684211,38.4664717 C33.2684211,41.3335283 35.6003899,43.6647173 38.4665692,43.6647173 C41.3327485,43.6647173 43.6647173,41.3336257 43.6647173,38.4665692 C43.6647173,35.5995127 41.3326511,33.2683236 38.4665692,33.2683236 Z M38.4665692,41.5854776 C36.7466862,41.5854776 35.3476608,40.1864522 35.3476608,38.4665692 C35.3476608,36.7466862 36.7466862,35.3476608 38.4665692,35.3476608 C40.1864522,35.3476608 41.5854776,36.7466862 41.5854776,38.4665692 C41.5854776,40.1864522 40.1864522,41.5854776 38.4665692,41.5854776 Z" id="Shape"></path>
                            </g>
                        </g>
                    </g>
                </g>
            </g>
        </g>
    </g>
</svg>