<?xml version="1.0" encoding="UTF-8"?>
<svg width="50px" height="59px" viewBox="0 0 50 59" version="1.1" xmlns="http://www.w3.org/2000/svg" xmlns:xlink="http://www.w3.org/1999/xlink">
    <!-- Generator: Sketch 49 (51002) - http://www.bohemiancoding.com/sketch -->
    <title>006-binary-code</title>
    <desc>Created with Sketch.</desc>
    <defs></defs>
    <g id="Page-1" stroke="none" stroke-width="1" fill="none" fill-rule="evenodd">
        <g id="Desktop-HD" transform="translate(-1007.000000, -361.000000)" fill="#3F51B5" fill-rule="nonzero">
            <g id="Services" transform="translate(250.000000, 80.000000)">
                <g id="Group-9" transform="translate(0.000000, 213.000000)">
                    <g id="Group-16" transform="translate(640.000000, 0.000000)">
                        <g id="Group-6" transform="translate(25.000000, 68.000000)">
                            <g id="006-binary-code" transform="translate(92.000000, 0.000000)">
                                <path d="M4.44088889,35.9324444 C4.44088889,36.8528889 5.18711111,37.5991111 6.10755556,37.5991111 C7.028,37.5991111 7.77422222,36.8528889 7.77422222,35.9324444 L7.77422222,22.9042222 C7.77422222,22.23 7.36822222,21.6224444 6.74533333,21.3644444 C6.12288889,21.1066667 5.40577778,21.2491111 4.92911111,21.7257778 L0.706,25.9488889 C0.0551111111,26.5997778 0.0551111111,27.6551111 0.706,28.3057778 C1.35688889,28.9566667 2.41222222,28.9566667 3.06288889,28.3057778 L4.44088889,26.9277778 L4.44088889,35.9324444 Z" id="Shape"></path>
                                <path d="M14.2842222,7.06822222 L15.6622222,5.69022222 L15.6622222,14.6948889 C15.6622222,15.6153333 16.4084444,16.3615556 17.3288889,16.3615556 C18.2493333,16.3615556 18.9955556,15.6153333 18.9955556,14.6948889 L18.9955556,1.66666667 C18.9955556,0.992444444 18.5895556,0.384888889 17.9666667,0.126888889 C17.3442222,-0.130888889 16.6271111,0.0115555556 16.1504444,0.488222222 L11.9273333,4.71133333 C11.2764444,5.36222222 11.2764444,6.41755556 11.9273333,7.06822222 C12.5782222,7.71911111 13.6335556,7.71911111 14.2842222,7.06822222 Z" id="Shape"></path>
                                <path d="M33.2922222,21.3644444 C32.6697778,21.1066667 31.9526667,21.2491111 31.476,21.7257778 L27.2528889,25.9488889 C26.602,26.5997778 26.602,27.6551111 27.2528889,28.3057778 C27.9037778,28.9566667 28.9591111,28.9566667 29.6097778,28.3057778 L30.9877778,26.9277778 L30.9877778,35.9324444 C30.9877778,36.8528889 31.734,37.5991111 32.6544444,37.5991111 C33.5748889,37.5991111 34.3211111,36.8528889 34.3211111,35.9324444 L34.3211111,22.9042222 C34.3211111,22.2302222 33.9151111,21.6224444 33.2922222,21.3644444 Z" id="Shape"></path>
                                <path d="M26.0482222,41.8766667 C25.4257778,41.6188889 24.7086667,41.7613333 24.232,42.238 L20.0088889,46.4611111 C19.358,47.112 19.358,48.1673333 20.0088889,48.818 C20.6597778,49.4688889 21.7151111,49.4688889 22.3657778,48.818 L23.7437778,47.44 L23.7437778,52.3726667 C23.7437778,53.2931111 24.49,54.0393333 25.4104444,54.0393333 C26.3308889,54.0393333 27.0771111,53.2931111 27.0771111,52.3726667 L27.0771111,43.4164444 C27.0771111,42.7422222 26.6711111,42.1346667 26.0482222,41.8766667 Z" id="Shape"></path>
                                <path d="M23.2231111,31.8711111 L23.2231111,26.9657778 C23.2231111,23.8073333 20.6535556,21.2377778 17.4951111,21.2377778 L17.4131111,21.2377778 C14.2546667,21.2377778 11.6851111,23.8073333 11.6851111,26.9657778 L11.6851111,31.8711111 C11.6851111,35.0295556 14.2546667,37.5991111 17.4131111,37.5991111 L17.4951111,37.5991111 C20.6535556,37.5991111 23.2231111,35.0295556 23.2231111,31.8711111 Z M19.8897778,31.8711111 C19.8897778,33.1915556 18.8155556,34.2657778 17.4951111,34.2657778 L17.4131111,34.2657778 C16.0926667,34.2657778 15.0184444,33.1915556 15.0184444,31.8711111 L15.0184444,26.9657778 C15.0184444,25.6453333 16.0926667,24.5711111 17.4131111,24.5711111 L17.4951111,24.5711111 C18.8155556,24.5711111 19.8897778,25.6453333 19.8897778,26.9657778 L19.8897778,31.8711111 Z" id="Shape"></path>
                                <path d="M44.1655556,21.2375556 L44.0835556,21.2375556 C40.9251111,21.2375556 38.3555556,23.8071111 38.3555556,26.9655556 L38.3555556,31.8708889 C38.3555556,35.0293333 40.9251111,37.5988889 44.0835556,37.5988889 L44.1655556,37.5988889 C47.324,37.5988889 49.8935556,35.0293333 49.8935556,31.8708889 L49.8935556,26.9655556 C49.8935556,23.8073333 47.324,21.2375556 44.1655556,21.2375556 Z M46.5602222,31.8711111 C46.5602222,33.1915556 45.486,34.2657778 44.1655556,34.2657778 L44.0835556,34.2657778 C42.7631111,34.2657778 41.6888889,33.1915556 41.6888889,31.8711111 L41.6888889,26.9657778 C41.6888889,25.6453333 42.7631111,24.5711111 44.0835556,24.5711111 L44.1655556,24.5711111 C45.486,24.5711111 46.5602222,25.6453333 46.5602222,26.9657778 L46.5602222,31.8711111 Z" id="Shape"></path>
                                <path d="M28.7164444,0 L28.6344444,0 C25.476,0 22.9064444,2.56955556 22.9064444,5.728 L22.9064444,10.6333333 C22.9064444,13.7917778 25.476,16.3613333 28.6344444,16.3613333 L28.7164444,16.3613333 C29.6368889,16.3613333 30.3831111,15.6151111 30.3831111,14.6946667 C30.3831111,13.7742222 29.6368889,13.028 28.7164444,13.028 L28.6344444,13.028 C27.314,13.028 26.2397778,11.9537778 26.2397778,10.6333333 L26.2397778,5.728 C26.2397778,4.40755556 27.314,3.33333333 28.6344444,3.33333333 L28.7164444,3.33333333 C30.0368889,3.33333333 31.1111111,4.40755556 31.1111111,5.728 C31.1111111,6.64844444 31.8573333,7.39466667 32.7777778,7.39466667 C33.6982222,7.39466667 34.4444444,6.64844444 34.4444444,5.728 C34.4446667,2.56955556 31.8751111,0 28.7164444,0 Z" id="Shape"></path>
                                <path d="M44.1655556,0 L44.0835556,0 C40.9251111,0 38.3555556,2.56955556 38.3555556,5.728 L38.3555556,10.6333333 C38.3555556,13.7917778 40.9251111,16.3613333 44.0835556,16.3613333 L44.1655556,16.3613333 C47.324,16.3613333 49.8935556,13.7917778 49.8935556,10.6333333 L49.8935556,5.728 C49.8935556,2.56955556 47.324,0 44.1655556,0 Z M46.5602222,10.6335556 C46.5602222,11.954 45.486,13.0282222 44.1655556,13.0282222 L44.0835556,13.0282222 C42.7631111,13.0282222 41.6888889,11.954 41.6888889,10.6335556 L41.6888889,5.728 C41.6888889,4.40755556 42.7631111,3.33333333 44.0835556,3.33333333 L44.1655556,3.33333333 C45.486,3.33333333 46.5602222,4.40755556 46.5602222,5.728 L46.5602222,10.6335556 Z" id="Shape"></path>
                                <path d="M9.70711111,41.7497778 L9.62511111,41.7497778 C6.46666667,41.7497778 3.89711111,44.3193333 3.89711111,47.4777778 L3.89711111,52.3831111 C3.89711111,55.5415556 6.46666667,58.1111111 9.62511111,58.1111111 L9.70711111,58.1111111 C12.8655556,58.1111111 15.4351111,55.5415556 15.4351111,52.3831111 L15.4351111,47.4777778 C15.4353333,44.3195556 12.8657778,41.7497778 9.70711111,41.7497778 Z M12.102,52.3833333 C12.102,53.7037778 11.0277778,54.778 9.70733333,54.778 L9.62533333,54.778 C8.30488889,54.778 7.23066667,53.7037778 7.23066667,52.3833333 L7.23066667,47.4777778 C7.23066667,46.1573333 8.30488889,45.0831111 9.62533333,45.0831111 L9.70733333,45.0831111 C11.0277778,45.0831111 12.102,46.1573333 12.102,47.4777778 L12.102,52.3833333 Z" id="Shape"></path>
                            </g>
                        </g>
                    </g>
                </g>
            </g>
        </g>
    </g>
</svg>